<svg width="35" height="35" viewBox="0 0 35 35" fill="none" xmlns="http://www.w3.org/2000/svg">
<path fill-rule="evenodd" clip-rule="evenodd" d="M8.02083 30.625C8.02083 28.6115 9.65313 26.9792 11.6667 26.9792C13.6802 26.9792 15.3125 28.6115 15.3125 30.625C15.3125 32.6385 13.6802 34.2708 11.6667 34.2708C9.65313 34.2708 8.02083 32.6385 8.02083 30.625ZM11.6667 28.4375C10.4585 28.4375 9.47917 29.4169 9.47917 30.625C9.47917 31.8331 10.4585 32.8125 11.6667 32.8125C12.8748 32.8125 13.8542 31.8331 13.8542 30.625C13.8542 29.4169 12.8748 28.4375 11.6667 28.4375Z" fill="#414141"/>
<path fill-rule="evenodd" clip-rule="evenodd" d="M25.5208 30.625C25.5208 28.6115 27.1531 26.9792 29.1667 26.9792C31.1802 26.9792 32.8125 28.6115 32.8125 30.625C32.8125 32.6385 31.1802 34.2708 29.1667 34.2708C27.1531 34.2708 25.5208 32.6385 25.5208 30.625ZM29.1667 28.4375C27.9585 28.4375 26.9792 29.4169 26.9792 30.625C26.9792 31.8331 27.9585 32.8125 29.1667 32.8125C30.3748 32.8125 31.3542 31.8331 31.3542 30.625C31.3542 29.4169 30.3748 28.4375 29.1667 28.4375Z" fill="#414141"/>
<path fill-rule="evenodd" clip-rule="evenodd" d="M1.45833 0.729166C1.05563 0.729166 0.729168 1.05563 0.729168 1.45833C0.729168 1.86104 1.05563 2.1875 1.45833 2.1875H6.67991C7.78433 8.4459 8.90069 14.6771 9.84275 20.9575C10.1105 22.7422 11.6436 24.0625 13.4482 24.0625H28.2329C29.9708 24.0625 31.4671 22.8358 31.8079 21.1317L33.9068 10.6373C34.1775 9.28373 33.1421 8.02083 31.7617 8.02083H10.4423C10.0005 8.02083 9.59288 8.15065 9.25219 8.37219L8.00974 1.33161C7.94825 0.983177 7.64549 0.729166 7.29167 0.729166H1.45833ZM9.72125 10.3165C9.65512 9.87564 9.99656 9.47917 10.4423 9.47917H31.7617C32.2219 9.47917 32.567 9.90013 32.4767 10.3513L30.3779 20.8457C30.1734 21.8682 29.2756 22.6042 28.2329 22.6042H13.4482C12.3654 22.6042 11.4456 21.812 11.2849 20.7412L9.72125 10.3165Z" fill="#414141"/>
</svg>
